<?xml version="1.0" encoding="UTF-8" standalone="no"?>
<!-- Created with Inkscape (http://www.inkscape.org/) -->

<svg
   width="25.0px"
   height="25.0px"
   viewBox="0 0 25.0 25.0"
   version="1.1"
   id="SVGRoot"
   sodipodi:docname="loading.svg"
   inkscape:version="1.1.2 (0a00cf5339, 2022-02-04, custom)"
   xmlns:inkscape="http://www.inkscape.org/namespaces/inkscape"
   xmlns:sodipodi="http://sodipodi.sourceforge.net/DTD/sodipodi-0.dtd"
   xmlns="http://www.w3.org/2000/svg"
   xmlns:svg="http://www.w3.org/2000/svg">
  <sodipodi:namedview
     id="namedview5296"
     pagecolor="#505050"
     bordercolor="#eeeeee"
     borderopacity="1"
     inkscape:pageshadow="0"
     inkscape:pageopacity="0"
     inkscape:pagecheckerboard="0"
     inkscape:document-units="px"
     showgrid="true"
     inkscape:zoom="24.978441"
     inkscape:cx="7.6265768"
     inkscape:cy="12.871099"
     inkscape:window-width="1920"
     inkscape:window-height="1012"
     inkscape:window-x="0"
     inkscape:window-y="0"
     inkscape:window-maximized="1"
     inkscape:current-layer="layer1">
    <inkscape:grid
       type="xygrid"
       id="grid5302" />
  </sodipodi:namedview>
  <defs
     id="defs5291" />
  <g
     inkscape:label="Taso 1"
     inkscape:groupmode="layer"
     id="layer1">
    <path
       style="fill:#000000;stroke-width:0.132774"
       d="M 10.982932,24.888444 C 9.023539,24.578171 6.9058861,23.783777 5.5161969,22.837708 4.5970272,22.21196 3.0166433,20.658624 2.3433909,19.719206 1.578731,18.652242 0.76388912,16.92511 0.4059997,15.612729 0.00554606,14.144264 -0.02408122,11.038123 0.34837695,9.571523 1.3060168,5.8006963 3.8352722,2.7124835 7.2630185,1.1287673 9.1325815,0.2649757 10.065396,0.07819885 12.50983,0.07819885 c 1.888212,0 2.335536,0.04192995 3.23902,0.30361642 4.432683,1.28388923 7.6752,4.55356393 8.871546,8.94585143 0.257451,0.9452113 0.30015,1.4171773 0.292339,3.2312653 -0.0081,1.909347 -0.04513,2.242405 -0.364625,3.290378 -1.63812,5.373202 -6.177648,8.906334 -11.639959,9.059417 -0.839794,0.02354 -1.706142,0.01441 -1.925219,-0.02029 z m 4.218174,-0.514966 c 2.271368,-0.569468 4.491633,-1.803922 5.882342,-3.270546 1.202071,-1.26769 1.736496,-2.015142 2.35908,-3.299436 C 26.879616,10.713322 22.968377,2.5078074 15.231692,0.57772162 14.029068,0.2776994 13.728797,0.25339914 12.045121,0.31982985 10.034795,0.39914888 9.0038058,0.65138318 7.198879,1.505477 4.9927586,2.5494161 2.7665883,4.7409532 1.6583637,6.959794 0.75384983,8.7707751 0.43848838,9.9206556 0.33324818,11.791473 -0.01631129,18.005465 4.5130188,23.545513 10.783771,24.574022 c 0.991743,0.162661 3.405787,0.05306 4.417335,-0.200544 z M 8.5266166,23.114447 c -0.2427059,-0.156849 -0.033072,-0.156849 0.3319344,0 0.175094,0.07524 0.1977073,0.116595 0.066387,0.121409 -0.1095384,0.004 -0.288783,-0.05062 -0.3983214,-0.121409 z m 7.6344924,0 c 0.365007,-0.156849 0.57464,-0.156849 0.331933,0 -0.109537,0.07079 -0.288781,0.125421 -0.398321,0.121409 -0.131321,-0.0049 -0.108706,-0.04617 0.06639,-0.121409 z m -5.77566,-0.123602 c 0.170173,-0.117811 0.163961,-0.138175 -0.04268,-0.139913 -0.219853,-0.0019 -0.222871,-0.021 -0.03319,-0.210677 0.114755,-0.114753 0.208645,-0.276075 0.208645,-0.358489 0,-0.107694 0.04051,-0.109335 0.144014,-0.0059 0.22863,0.22863 0.08975,0.763978 -0.210402,0.8111 -0.219082,0.03439 -0.230698,0.01757 -0.06639,-0.0962 z M 7.2652659,22.544747 c -2.2037407,-1.19198 -3.8073366,-2.82013 -4.8942489,-4.969192 -0.5343201,-1.056467 -0.4105283,-1.027199 0.1542428,0.03647 1.1563921,2.177899 2.6809489,3.705726 4.8431837,4.853565 0.5274568,0.280004 0.8992642,0.509314 0.8262387,0.509577 -0.073026,2.65e-4 -0.491263,-0.193427 -0.9294163,-0.430418 z m 2.4049427,0.279857 c 0.038346,-0.06205 0.1253403,-0.07843 0.19332,-0.03642 0.1737194,0.107364 0.1541584,0.149234 -0.069721,0.149234 -0.1063262,0 -0.1619457,-0.05077 -0.1235993,-0.112812 z m 4.7652184,-0.10729 c -0.04615,-0.145397 -0.04987,-0.319443 -0.0083,-0.386768 0.07567,-0.122439 1.101348,-0.354652 1.317338,-0.298245 0.06298,0.01644 0.196274,-0.07689 0.296219,-0.207424 0.158532,-0.207047 0.19872,-0.211917 0.314981,-0.03817 0.204903,0.306226 0.161965,0.758778 -0.08084,0.85195 -0.29989,0.115077 -0.361462,0.01748 -0.116979,-0.185417 0.451995,-0.375124 0.03839,-0.474028 -0.585656,-0.140048 -0.206795,0.110672 -0.274165,0.107264 -0.274165,-0.01386 0,-0.08832 -0.147528,-0.02199 -0.327842,0.147403 -0.180314,0.169395 -0.296283,0.359054 -0.257711,0.421464 0.03857,0.06242 0.01089,0.113475 -0.06153,0.113475 -0.07242,0 -0.16942,-0.118963 -0.215566,-0.26436 z m 0.397943,-0.266735 c 0.04513,-0.07303 0.02231,-0.132775 -0.05072,-0.132775 -0.07303,0 -0.1697,0.05974 -0.214832,0.132775 -0.04513,0.07303 -0.02231,0.132773 0.05072,0.132773 0.07303,0 0.169698,-0.05974 0.214832,-0.132773 z m 0.202037,0.260174 c 0.125929,-0.235302 0.18234,-0.258314 0.27491,-0.112145 0.06406,0.101146 0.117385,0.11881 0.118503,0.03925 0.0011,-0.07956 0.166339,-0.214966 0.367161,-0.300901 0.338578,-0.144882 0.346388,-0.141604 0.107397,0.04508 -0.141753,0.110726 -0.201501,0.203135 -0.132775,0.205357 0.165538,0.0054 -0.193358,0.204878 -0.5835,0.3244 -0.28737,0.08803 -0.298505,0.07328 -0.151696,-0.201037 z m 2.593902,-0.233638 c 1.83813,-0.975985 3.382989,-2.387041 4.377615,-3.998465 0.565068,-0.91548 0.726186,-1.057021 0.338753,-0.297588 -0.835855,1.638412 -2.769558,3.449237 -4.752837,4.450815 -1.056216,0.533401 -1.02713,0.409973 0.03646,-0.154762 z m -8.3847056,-0.07855 c 0.011117,-0.439059 0.013674,-0.440784 0.3385349,-0.228386 0.1924974,0.125859 0.2852008,0.145651 0.2250514,0.04805 -0.057118,-0.09268 -0.040193,-0.165968 0.038329,-0.165968 0.077336,0 0.1406097,0.08961 0.1406097,0.199161 0,0.109537 0.014937,0.238018 0.033194,0.285509 0.01826,0.04749 -0.1048758,0.10742 -0.2736297,0.133175 -0.2118557,0.03233 -0.2807266,-0.0048 -0.2225079,-0.119543 0.046374,-0.0915 -8.04e-5,-0.0636 -0.1032328,0.06202 -0.1694769,0.206378 -0.18647,0.185756 -0.1763471,-0.214017 z m -0.5347588,0.124764 c -0.040691,-0.106042 -0.029584,-0.264643 0.024682,-0.35245 0.062534,-0.101177 0.04253,-0.124952 -0.054622,-0.06491 -0.090831,0.05613 -0.1532883,0.0104 -0.1532883,-0.11226 0,-0.460053 0.4499846,-0.143492 0.5078838,0.357292 0.044094,0.381386 -0.1956075,0.508619 -0.3246555,0.172326 z m 5.3268834,0.06003 c -0.04513,-0.07303 -0.01879,-0.132773 0.05855,-0.132773 0.07733,0 0.14061,0.05975 0.14061,0.132773 0,0.07303 -0.02634,0.132774 -0.05855,0.132774 -0.0322,0 -0.09548,-0.05974 -0.14061,-0.132774 z M 7.7951176,22.315792 C 7.7493015,22.241659 7.5205423,22.101087 7.2867637,22.003409 6.7977392,21.799081 6.6082047,21.130736 7.034399,21.113508 c 0.1942357,-0.0078 0.1887329,-0.02627 -0.03468,-0.116092 -0.1460512,-0.05871 -0.3701069,-0.05242 -0.4979016,0.01401 -0.2590938,0.134661 -0.3332525,-0.07609 -0.081519,-0.231676 0.099827,-0.0617 0.043702,-0.175599 -0.1659672,-0.336818 -0.1742413,-0.133978 -0.3552211,-0.244925 -0.4021774,-0.246548 -0.1624835,-0.0056 -0.2343707,0.387227 -0.087473,0.478016 0.089311,0.0552 0.1101195,0.03069 0.052752,-0.06213 -0.052106,-0.0843 -0.031463,-0.153287 0.045873,-0.153287 0.077336,0 0.1406096,0.05486 0.1406096,0.121912 0,0.06705 0.036266,0.216423 0.080592,0.331934 0.044326,0.115513 0.015134,0.210021 -0.064869,0.210021 -0.2167916,0 -0.6764811,-0.428712 -0.5972139,-0.556969 0.037826,-0.0612 0.097865,-0.274601 0.1334212,-0.474219 0.061762,-0.34674 0.055952,-0.351153 -0.1301895,-0.09886 -0.1071597,0.145246 -0.1667338,0.309553 -0.1323869,0.365128 0.034347,0.05557 0.00615,0.101041 -0.062675,0.101041 -0.068818,0 -0.1563946,-0.11958 -0.1946142,-0.265731 -0.03822,-0.146152 -0.022084,-0.236431 0.035858,-0.200622 0.057941,0.0358 0.1791812,-0.02386 0.2694226,-0.132591 0.2129998,-0.256649 0.397108,-0.252338 0.397108,0.0093 0,0.113847 0.04997,0.176113 0.1110431,0.138367 0.061074,-0.03775 0.323716,0.131972 0.5836496,0.377148 0.2599336,0.245177 0.5983275,0.485677 0.7519865,0.534446 0.1536589,0.04877 0.2793798,0.139514 0.2793798,0.201645 0,0.06213 0.035354,0.205101 0.078567,0.317709 0.058006,0.151162 0.00789,0.191132 -0.1915022,0.15273 -0.1975996,-0.03805 -0.249352,0.002 -0.1928635,0.149185 0.06269,0.163369 0.098313,0.1679 0.1894691,0.0241 0.09015,-0.142215 0.1134592,-0.137869 0.118334,0.02206 0.00477,0.156486 0.035195,0.149147 0.1419929,-0.03424 C 7.683182,21.624103 7.707713,21.459796 7.662939,21.38735 7.618163,21.3149 7.644804,21.255628 7.72214,21.255628 c 0.1768391,0 0.1797889,0.209796 0.00748,0.531766 -0.1500597,0.280388 9.56e-4,0.440039 0.305639,0.323119 0.1174483,-0.04507 0.1694415,-0.178747 0.1292699,-0.332365 -0.046806,-0.178989 6.506e-4,-0.256972 0.1563941,-0.256972 0.170495,0 0.2018444,0.07094 0.1320094,0.298741 -0.1696862,0.553501 -0.47838,0.786212 -0.6578094,0.495888 z m 9.4945684,-0.350188 c 0,-0.107012 -0.05906,-0.158063 -0.131254,-0.113447 -0.07379,0.0456 -0.09835,-0.0047 -0.05611,-0.1147 0.07863,-0.204906 -0.145928,-0.224539 -0.443311,-0.03875 -0.09129,0.05702 -0.165968,0.05478 -0.165968,-0.0051 0,-0.05976 0.130047,-0.189886 0.288993,-0.289148 0.249444,-0.155782 0.310501,-0.151067 0.446153,0.03445 0.198316,0.271213 0.514474,0.283319 0.411804,0.01577 -0.04203,-0.109537 -0.01856,-0.199161 0.05219,-0.199161 0.21844,0 0.141686,0.401637 -0.09404,0.492095 -0.200556,0.07696 -0.197969,0.09409 0.02609,0.172687 0.229318,0.08044 0.22597,0.0932 -0.04291,0.163514 -0.202345,0.05292 -0.29163,0.01669 -0.29163,-0.118302 z m 0.68195,-0.415527 c -0.0107,-0.179445 -0.135919,-0.346611 -0.307032,-0.40991 -0.288332,-0.10666 -0.288262,-0.107105 0.03319,-0.207595 0.177177,-0.05539 0.476492,-0.09153 0.665142,-0.08031 0.232037,0.0138 0.342999,-0.04714 0.342999,-0.188372 0,-0.146668 -0.08227,-0.186803 -0.276613,-0.13492 -0.222228,0.05934 -0.211354,0.03543 0.05533,-0.121611 0.277379,-0.163335 0.338758,-0.165454 0.373447,-0.0129 0.02283,0.100411 0.112453,0.165792 0.19916,0.145294 0.08671,-0.02049 0.11918,-0.01432 0.07217,0.01372 -0.04702,0.02805 -0.05255,0.176967 -0.01228,0.330935 0.05044,0.192882 0.02473,0.249986 -0.08264,0.18362 -0.08572,-0.05298 -0.124027,-0.147821 -0.08513,-0.210754 0.03889,-0.06294 0.01826,-0.146844 -0.04585,-0.186469 -0.06411,-0.03963 -0.1099,0.09068 -0.101745,0.289566 0.01299,0.316647 -0.02929,0.35647 -0.339999,0.320266 -0.281528,-0.03281 -0.366933,0.02205 -0.413434,0.265547 l -0.05861,0.306894 z m 0.645787,-0.511212 c 0,-0.02916 -0.175111,-0.03967 -0.389135,-0.02336 -0.214025,0.0163 -0.36482,0.069 -0.335103,0.117077 0.05515,0.08922 0.724238,0.0026 0.724238,-0.09371 z M 6.53501,21.521162 c 0,-0.07303 -0.089622,-0.132773 -0.1991605,-0.132773 -0.1095384,0 -0.1991606,-0.06971 -0.1991606,-0.154906 0,-0.08519 0.03773,-0.117171 0.083844,-0.07105 0.046115,0.04611 0.1805478,0.03209 0.298741,-0.03117 0.1702824,-0.09113 0.2148965,-0.04881 0.2148965,0.203832 0,0.175362 -0.044811,0.318842 -0.099581,0.318842 -0.054769,0 -0.09958,-0.05974 -0.09958,-0.132774 z m 3.916827,-0.483523 C 8.87749,20.705081 6.4022364,19.345891 6.4022364,18.813959 c 0,-0.08635 0.2381846,-0.340057 0.5292993,-0.563799 0.2911147,-0.223743 0.8534995,-0.813619 1.2497439,-1.31084 L 8.9017239,16.035284 8.6264523,15.66296 C 8.4176211,15.380502 8.3062936,14.897228 8.1652077,13.660692 8.0629225,12.764224 7.9033026,11.940473 7.8104965,11.830132 7.7176905,11.719794 7.5109056,11.316604 7.3509744,10.934157 7.0506605,10.216012 7.068031,9.6371676 7.397929,9.3694493 7.5292208,9.2629036 7.535178,8.9525039 7.4256673,7.9241326 7.3198631,6.9305679 7.3257085,6.466801 7.4498885,6.0025071 7.6665993,5.1922486 8.6372806,3.6339667 8.9831604,3.5410688 c 0.1505417,-0.040432 1.2172646,-0.074329 2.3704966,-0.075327 4.50918,-0.0039 6.163288,0.8861694 6.727499,3.6200368 0.116062,0.5623792 0.120596,0.9431903 0.01698,1.4263421 -0.07775,0.3625202 -0.104916,1.0927413 -0.06037,1.6227133 0.08393,0.998831 0.05958,1.092364 -0.6242,2.39648 -0.14519,0.276913 -0.351955,0.537234 -0.459474,0.578493 -0.147429,0.05658 -0.19549,0.313256 -0.19549,1.044053 0,0.896386 0.03235,1.008642 0.431514,1.497331 0.237334,0.290563 0.533957,0.715607 0.659163,0.944538 0.125204,0.228932 0.528506,0.603264 0.896223,0.831849 0.367716,0.228586 0.668575,0.489867 0.668575,0.580622 0,0.365526 -1.623677,1.65753 -2.824303,2.247376 -1.971427,0.968525 -4.019707,1.229507 -6.137926,0.782063 z m 2.854636,-0.220179 c 0,-0.09493 0.07469,-0.247292 0.165966,-0.338574 0.09129,-0.09129 0.165968,-0.327286 0.165968,-0.524456 0,-0.324277 -0.04728,-0.359099 -0.49541,-0.364871 -0.30508,-0.0039 -0.662149,-0.128451 -0.929417,-0.324119 -0.290955,-0.213013 -0.369649,-0.238554 -0.238752,-0.0775 0.176226,0.216825 0.161239,0.267824 -0.153776,0.52328 -0.345786,0.280407 -0.347004,0.287672 -0.130827,0.780942 0.21241,0.484674 0.236778,0.497903 0.917227,0.497903 0.485039,0 0.699021,-0.05283 0.699021,-0.172607 z m -2.712378,-0.223817 c 0,-0.155932 -0.04874,-0.214904 -0.119309,-0.144344 -0.06562,0.06561 -0.07917,0.184261 -0.0301,0.26365 0.124843,0.202 0.149408,0.182385 0.149409,-0.119306 z m 0.853544,0.07233 c 0,-0.0322 -0.05974,-0.09547 -0.132773,-0.14061 -0.07303,-0.04513 -0.132774,-0.01879 -0.132774,0.05855 0,0.07733 0.05974,0.140611 0.132774,0.140611 0.07303,0 0.132773,-0.02634 0.132773,-0.05855 z m 4.507036,-0.668019 c 0.358331,-0.181581 0.682469,-0.435936 0.72031,-0.565237 0.152015,-0.519435 0.349153,-1.841873 0.349153,-2.342182 v -0.53142 L 16.4125,17.480048 c -0.781283,1.176372 -1.273943,1.690818 -1.975767,2.063134 -0.417055,0.221245 -0.545781,0.361002 -0.49862,0.541339 0.03496,0.133703 -0.0069,0.327945 -0.09292,0.43165 -0.230755,0.278043 1.261622,-0.08858 2.109478,-0.518217 z M 9.4272211,20.359389 C 9.2884088,20.200304 9.2338576,19.896766 9.2542223,19.396782 c 0.016359,-0.401643 0.00433,-0.625699 -0.026732,-0.497902 -0.031062,0.127793 -0.115369,0.232354 -0.1873498,0.232354 -0.071981,0 -0.0958,0.05676 -0.052933,0.126111 0.042868,0.06937 -0.0393,0.188859 -0.1825958,0.265548 -0.3824963,0.204704 -0.5008085,0.169842 -0.2037918,-0.06005 0.2539038,-0.196523 0.2537879,-0.198335 -0.00781,-0.121934 -0.2619121,0.0765 -0.262019,0.07468 -0.00781,-0.132449 0.1417438,-0.1155 0.3130198,-0.210001 0.3806052,-0.210001 0.067585,0 0.081712,-0.134433 0.031393,-0.29874 -0.050319,-0.164309 -0.090428,-0.388364 -0.08913,-0.497902 0.0013,-0.109539 -0.031564,-0.495388 -0.073026,-0.857441 l -0.075395,-0.658283 -0.24858,0.306983 c -0.136719,0.16884 -0.2204349,0.352522 -0.1860357,0.40818 0.034399,0.05567 -0.070481,0.213745 -0.2330658,0.351299 -0.2930352,0.247919 -0.2938752,0.247722 -0.09645,-0.02276 0.1095383,-0.150069 0.043799,-0.103288 -0.1460853,0.10394 -0.1898853,0.20724 -0.5390382,0.51977 -0.7758953,0.694519 l -0.4306492,0.317724 0.5767346,0.420044 c 0.6988021,0.508949 1.3694503,0.87032 1.2467586,0.671801 -0.060743,-0.09828 0.01999,-0.09488 0.2514949,0.01059 0.1875248,0.08544 0.3111815,0.185123 0.2747929,0.221511 -0.036389,0.03639 0.067918,0.140321 0.231793,0.230961 0.4127106,0.22827 0.4343045,0.22385 0.2027553,-0.04152 z M 7.8295543,19.253372 C 7.6909551,19.172645 7.603415,18.97337 7.6126021,18.759509 c 0.011771,-0.274025 0.030231,-0.29594 0.078314,-0.09298 0.034602,0.14605 0.1919783,0.368778 0.3497259,0.494948 0.3107994,0.248586 0.1660921,0.311586 -0.2110876,0.0919 z M 6.9942587,18.989627 c -0.1407313,-0.227709 -0.014704,-0.250051 0.2633995,-0.0467 0.2153703,0.157484 0.2220519,0.188306 0.040821,0.188306 -0.119186,0 -0.2560851,-0.06373 -0.3042201,-0.141607 z m 4.0467883,0.80935 c 0.369676,-0.173148 0.67214,-0.352444 0.67214,-0.398435 0,-0.04599 -0.253929,-0.208649 -0.564289,-0.361463 -0.82838,-0.407871 -1.6884552,-1.071466 -1.8234884,-1.406921 -0.088867,-0.220769 -0.1201749,-0.237087 -0.1265082,-0.06593 -0.00463,0.125091 0.1110803,0.530604 0.2571315,0.901138 0.1460512,0.370534 0.2655476,0.935974 0.2655476,1.256531 0,0.447857 0.053809,0.594201 0.232354,0.631931 0.1277945,0.02701 0.2734435,-0.0164 0.3236625,-0.09647 0.05022,-0.08006 0.393772,-0.287231 0.76345,-0.460378 z m 6.912507,-0.759794 c 0,-0.04027 -0.104559,0.0087 -0.232354,0.108986 -0.211664,0.165998 -0.215757,0.161088 -0.04597,-0.05515 0.102512,-0.130554 0.43113,-0.425245 0.730256,-0.654865 l 0.543867,-0.417498 -0.464532,0.522095 -0.464533,0.522092 0.560607,-0.521424 0.560606,-0.521422 -0.659022,-0.443811 c -0.36246,-0.244096 -0.755781,-0.591487 -0.874045,-0.771982 -0.311275,-0.475064 -0.450048,-0.290156 -0.429568,0.572378 0.02298,0.967528 -0.142278,2.16528 -0.330855,2.398054 -0.08052,0.09938 0.135293,-0.0094 0.479575,-0.241761 0.344281,-0.232353 0.625964,-0.455415 0.625964,-0.495695 z m -3.539876,-0.145854 c 0.28035,-0.190131 0.74914,-0.617684 1.04176,-0.950118 0.292621,-0.332434 0.581062,-0.604423 0.640983,-0.604423 0.05992,0 0.158735,-0.05439 0.219591,-0.120868 0.06428,-0.07022 0.0411,-0.08086 -0.05533,-0.02536 -0.219758,0.126466 -0.209306,0.01768 0.04568,-0.475413 0.203003,-0.392567 0.201651,-0.799607 -0.0045,-1.369967 -0.09464,-0.261766 -0.09301,-0.261879 0.113997,-0.0077 0.151406,0.18582 0.209432,0.204342 0.207967,0.06638 -0.0011,-0.105239 -0.05286,-0.27155 -0.114998,-0.369577 -0.08531,-0.134606 -0.189174,-0.0696 -0.424294,0.265548 -0.198975,0.283623 -0.229347,0.378017 -0.08417,0.261556 0.124942,-0.100222 0.227168,-0.128771 0.227168,-0.06344 0,0.188273 -0.800234,1.108699 -0.963924,1.108699 -0.08137,0 0.02754,-0.194182 0.242021,-0.431516 l 0.389968,-0.431514 -0.426794,0.385445 c -0.234736,0.211996 -0.400884,0.427367 -0.36922,0.478603 0.03167,0.05123 -0.09494,0.236274 -0.281338,0.411196 -0.323631,0.3037 -0.42127,0.31804 -2.165324,0.31804 -1.815431,0 -1.830427,-0.0025 -2.495018,-0.415703 l -0.6686509,-0.415725 0.2157418,0.528223 c 0.2599042,0.63635 0.6454631,0.945158 2.1922951,1.75589 1.326999,0.695511 1.623318,0.707503 2.516384,0.101839 z m -1.505527,-0.683677 c 0,-0.06871 0.05906,-0.161442 0.131254,-0.206056 0.07526,-0.04652 0.09753,0.0069 0.05219,0.124938 -0.08826,0.230019 -0.183435,0.272106 -0.183435,0.08111 z m 2.672411,0.02536 c 0.165154,-0.210588 0.160459,-0.215285 -0.05012,-0.05012 -0.127796,0.100223 -0.232354,0.204785 -0.232354,0.232355 0,0.109278 0.109031,0.03894 0.282483,-0.182223 z m -5.46066,-0.211777 c 0,-0.0252 -0.1344337,-0.159629 -0.2987413,-0.298741 l -0.2987409,-0.252932 0.2529324,0.298741 c 0.2376938,0.280742 0.3445498,0.359185 0.3445498,0.252932 z m 2.954217,-0.846884 c -0.237333,-0.02945 -0.625697,-0.02945 -0.86303,0 -0.237334,0.02945 -0.04315,0.05355 0.431515,0.05355 0.474666,0 0.668847,-0.0241 0.431515,-0.05355 z m -1.529665,-0.116943 c -0.04412,-0.04412 -0.158638,-0.04883 -0.254484,-0.01049 -0.105918,0.04239 -0.07445,0.07384 0.08022,0.08022 0.139967,0.0058 0.218386,-0.02562 0.174266,-0.06973 z m 2.78825,0 c -0.04412,-0.04412 -0.158639,-0.04883 -0.254484,-0.01049 -0.105918,0.04239 -0.07445,0.07384 0.08022,0.08022 0.139965,0.0058 0.218385,-0.02562 0.174266,-0.06973 z m -1.223846,-0.313229 c -0.06546,-0.206256 0.01244,-0.300439 0.373167,-0.451161 0.250744,-0.104769 0.496594,-0.256332 0.546331,-0.336809 0.04974,-0.08047 0.191465,-0.145404 0.314949,-0.144286 0.193488,0.0018 0.196993,0.01983 0.02536,0.130741 -0.109539,0.07079 -0.14509,0.129623 -0.079,0.130741 0.1809,0.0031 -0.346861,0.548571 -0.651254,0.673156 -0.228446,0.09351 -0.212085,0.109862 0.117102,0.117101 0.50679,0.01114 1.145193,-0.398025 1.698909,-1.088879 0.923332,-1.152019 0.90771,-1.093603 0.885958,-3.312759 -0.01094,-1.11621 -0.04144,-1.850229 -0.06778,-1.63115 -0.08712,0.724773 -0.349532,1.394124 -0.546546,1.394124 -0.143639,0 -0.170903,-0.09392 -0.105982,-0.365128 0.223778,-0.934836 0.231254,-1.581982 0.024,-2.077998 -0.268208,-0.6419134 -0.266814,-0.7278126 0.01115,-0.6870166 0.123406,0.018111 0.298106,0.2368804 0.388221,0.4861526 0.119177,0.3296665 0.166597,0.3766618 0.173944,0.1723867 0.0056,-0.1544584 -0.100939,-0.4233252 -0.236665,-0.597482 C 15.30854,8.2954012 15.149188,7.5458268 15.457029,6.6945081 15.604393,6.2869816 15.588141,6.2259056 15.234004,5.8562634 14.910028,5.518106 14.820379,5.4837587 14.643544,5.6300421 c -0.471809,0.3902886 -0.998193,0.489363 -2.60003,0.489363 -1.149848,0 -1.834802,-0.063156 -2.2634962,-0.2087003 C 9.4419264,5.7959191 9.1558326,5.7212338 9.1442537,5.7447375 9.1326745,5.7682398 8.9840603,5.9858719 8.8139993,6.2283646 8.5737204,6.5709807 8.4778172,6.9544339 8.3837588,7.9486107 c -0.066571,0.7036425 -0.0722,1.328189 -0.012509,1.3878815 0.059691,0.059692 0.2179511,-0.012374 0.3516872,-0.1601543 0.1785415,-0.1972847 0.4093445,-0.2686851 0.8685419,-0.2686851 1.1097701,0 1.5882351,0.6719189 1.5898731,2.2326902 4.12e-4,0.388184 -0.05917,0.817732 -0.132393,0.954553 -0.165167,0.308615 -0.04064,0.394046 0.440332,0.3021 0.282125,-0.05393 0.349271,-0.123197 0.277751,-0.286529 -0.36014,-0.82247 -0.102869,-2.2296038 0.500471,-2.7372788 0.529165,-0.4452621 1.485088,-0.460381 2.151012,-0.034021 0.52569,0.3365774 0.710631,0.6306753 0.396594,0.6306753 -0.114994,0 -0.328766,0.1521575 -0.475049,0.3381285 -0.237153,0.30149 -0.346767,0.333861 -1.01163,0.298741 -0.623565,-0.03294 -0.770382,-0.08919 -0.896656,-0.343542 -0.144157,-0.2903694 -0.15477,-0.2813434 -0.234176,0.199161 -0.14499,0.877359 -0.100695,1.222205 0.179448,1.397159 0.287821,0.179746 0.372829,0.691325 0.09958,0.599271 -0.09129,-0.03075 -0.22935,0.03009 -0.306817,0.135188 -0.196917,0.267174 -1.326623,0.378751 -1.593369,0.157371 -0.115205,-0.09561 -0.18301,-0.274998 -0.150678,-0.398635 0.04429,-0.169384 -0.0059,-0.207902 -0.203321,-0.156256 -0.200733,0.05249 -0.251037,0.01104 -0.214826,-0.176976 0.026,-0.135036 0.196026,-0.280634 0.377823,-0.323551 0.181798,-0.04292 0.351524,-0.186984 0.377169,-0.320153 0.06454,-0.335127 -0.131411,-1.5190492 -0.210716,-1.273133 -0.22651,0.702388 -1.7408988,0.686863 -1.9652952,-0.02015 C 8.5090158,9.8379946 8.197019,9.7472729 8.0851351,9.9366495 c -0.032358,0.054769 0.045503,0.4281955 0.1730238,0.8298355 0.1275206,0.401641 0.3079824,1.529116 0.4010261,2.5055 0.1562422,1.639577 0.1978172,1.807868 0.544032,2.202184 0.842389,0.959429 2.04319,1.494368 3.415141,1.52139 0.511495,0.01008 0.564323,-0.01678 0.4905,-0.24938 z m 0.66058,-1.202659 c -0.05085,-0.08228 0.02643,-0.279621 0.171733,-0.438522 0.145307,-0.158902 0.303792,-0.438282 0.352184,-0.620845 0.07344,-0.277057 0.0639,-0.293521 -0.05772,-0.09958 -0.205474,0.327654 -0.424548,0.288779 -0.374106,-0.06639 0.02881,-0.202856 0.138315,-0.303578 0.34117,-0.313807 0.234381,-0.01182 0.301591,0.0597 0.311975,0.331935 l 0.01324,0.346999 0.106304,-0.331934 0.106304,-0.331934 0.01324,0.345492 c 0.01367,0.356957 -0.466811,1.188807 -0.738047,1.277758 -0.08459,0.02774 -0.195408,-0.01688 -0.246265,-0.09918 z m 0.719069,-0.718234 c -0.03493,-0.03493 -0.142609,0.0682 -0.239289,0.229193 -0.167948,0.279664 -0.165119,0.282491 0.06352,0.06352 0.13161,-0.126056 0.210709,-0.257772 0.175779,-0.292703 z m -2.908093,0.420793 c 0,-0.219229 0.62049,-0.584017 0.758552,-0.445954 0.0523,0.0523 0.03136,0.196779 -0.04656,0.321068 -0.179731,0.286768 -0.711999,0.380126 -0.711999,0.124886 z m 1.194964,-0.103436 c 0,-0.183768 0.551846,-0.924039 0.688838,-0.924039 0.206249,0 0.10623,0.624137 -0.135005,0.842451 -0.273935,0.247905 -0.553833,0.289139 -0.553833,0.08158 z M 9.5018501,14.677585 c -0.043242,-0.112687 -0.038501,-0.245007 0.010536,-0.294044 0.1087438,-0.108744 0.5055149,0.126544 0.5774849,0.342451 0.07867,0.236019 -0.4970629,0.188625 -0.5880201,-0.04841 z m 1.5474689,0.07212 c 0,-0.07303 -0.09534,-0.132774 -0.211869,-0.132774 -0.307664,0 -0.9830958,-0.427305 -0.9830958,-0.621943 0,-0.09334 -0.08743,-0.132817 -0.1991606,-0.08994 -0.1381974,0.05303 -0.1991607,-0.0092 -0.1991607,-0.203326 0,-0.191238 0.084021,-0.279752 0.2655476,-0.279752 0.155384,0 0.2655474,0.08851 0.2655474,0.213365 0,0.15113 0.067774,0.185462 0.2323551,0.117711 0.127794,-0.05262 0.336913,-0.125723 0.464708,-0.162467 0.127794,-0.03674 0.232353,-0.179335 0.232353,-0.316871 0,-0.353069 0.367899,-0.312124 0.437393,0.04867 l 0.05754,0.298741 0.01808,-0.298741 c 0.02135,-0.352653 0.416403,-0.411648 0.416403,-0.06218 0,0.165719 0.17893,0.289394 0.597482,0.412978 0.5526,0.163162 0.843158,0.545428 0.414578,0.545428 -0.100601,0 -0.257283,0.08961 -0.348191,0.19916 -0.09091,0.109537 -0.27747,0.199161 -0.414579,0.199161 -0.137109,0 -0.24929,0.05974 -0.24929,0.132774 0,0.07303 -0.179245,0.132774 -0.398322,0.132774 -0.219076,0 -0.39832,-0.05974 -0.39832,-0.132774 z m 0.497964,-0.165967 c -0.03039,-0.09129 -0.15466,-0.185247 -0.276147,-0.208809 -0.154034,-0.02987 -0.196636,0.02035 -0.140759,0.165967 0.09418,0.245452 0.498188,0.286966 0.416906,0.04285 z m -0.839607,-0.504455 c -0.29685,-0.107778 -0.383383,-0.06704 -0.264883,0.124693 0.04616,0.0747 0.182211,0.0981 0.302329,0.05201 0.191985,-0.07367 0.187458,-0.09503 -0.03744,-0.176696 z m 1.5001,0.0066 c -0.02152,-0.285593 -0.05508,-0.298548 -0.760137,-0.293368 -0.837053,0.0062 -0.874638,0.05696 -0.132773,0.179461 0.401641,0.06633 0.750172,0.178836 0.774513,0.250023 0.07469,0.218419 0.13949,0.143915 0.118397,-0.136116 z m 3.027664,-0.29874 c 0.11352,-0.685286 0.297966,-1.063349 0.467622,-0.958494 0.190209,0.117555 0.151496,0.690239 -0.07646,1.131053 -0.302754,0.585461 -0.50216,0.497494 -0.391164,-0.172559 z m 0.416119,-0.663868 c -0.03684,-0.09129 -0.06696,-0.0166 -0.06696,0.165967 0,0.182564 0.03013,0.257248 0.06696,0.165967 0.03684,-0.09129 0.03684,-0.240653 0,-0.331934 z m -2.547086,0.561149 c -0.183583,-0.202856 -0.205658,-0.306182 -0.0901,-0.421739 0.115556,-0.115556 0.218882,-0.09348 0.421739,0.0901 0.147777,0.133737 0.268685,0.32352 0.268685,0.421741 0,0.264865 -0.322944,0.216395 -0.600321,-0.0901 z m 0.144211,-2.638475 c -0.0404,-0.06538 0.0059,-0.1493 0.102806,-0.186501 0.09695,-0.03721 0.176269,0.01628 0.176269,0.118861 0,0.209062 -0.166705,0.249466 -0.279079,0.06764 z m -3.9545639,5.295167 c -0.00626,-0.220105 -0.017835,-0.384412 -0.025728,-0.365129 -0.00789,0.01929 -0.1332094,0.183407 -0.2784824,0.364712 -0.2062003,0.257345 -0.2131701,0.290179 -0.031778,0.149709 0.1997511,-0.154689 0.232354,-0.149709 0.232354,0.03548 0,0.11848 0.025878,0.215418 0.057507,0.215418 0.031628,0 0.052386,-0.180087 0.046129,-0.400192 z m 4.8259319,-0.09772 c 0.165154,-0.210588 0.160457,-0.215284 -0.05012,-0.05012 -0.127795,0.100222 -0.232354,0.204784 -0.232354,0.232353 0,0.109279 0.109032,0.03894 0.282484,-0.182222 z M 8.4853671,13.58798 c -0.033396,-0.127796 -0.06072,-0.02323 -0.06072,0.232353 0,0.25559 0.027324,0.360149 0.06072,0.232354 0.033397,-0.127794 0.033397,-0.336913 0,-0.464707 z m 8.1062609,-2.190767 c -0.0252,-0.529435 -0.04582,-0.09627 -0.04582,0.962609 0,1.058871 0.02062,1.492046 0.04582,0.96261 0.0252,-0.529435 0.0252,-1.395785 0,-1.925219 z m -8.2398593,1.203262 c -0.042385,-0.105917 -0.073847,-0.07445 -0.080217,0.08022 -0.00577,0.139964 0.025616,0.218384 0.069736,0.174265 0.04412,-0.04412 0.048837,-0.158638 0.010479,-0.254483 z m 8.6893053,0.06579 c 0.123818,-0.152645 0.12903,-0.192688 0.01625,-0.124937 -0.283624,0.170395 -0.189246,-0.294114 0.165968,-0.816856 0.239348,-0.352233 0.331934,-0.665062 0.331934,-1.121533 0,-0.6956847 -0.188652,-0.8192508 -0.583933,-0.382473 -0.183371,0.202624 -0.222083,0.482122 -0.202287,1.460512 0.01347,0.665464 0.03918,1.209935 0.05716,1.209935 0.01797,0 0.114678,-0.101094 0.214902,-0.224648 z m -4.97164,-0.596933 c -0.04239,-0.105917 -0.07384,-0.07445 -0.08022,0.08022 -0.0058,0.139966 0.02562,0.218384 0.06973,0.174265 0.04412,-0.04412 0.04883,-0.158636 0.0105,-0.254483 z M 11.01182,10.801508 c -0.03052,-0.201823 -0.0563,-0.06821 -0.0573,0.296916 -9.93e-4,0.365128 0.02397,0.530257 0.0555,0.366953 0.03153,-0.163303 0.03233,-0.462044 0.0018,-0.663869 z M 8.079207,11.264391 C 8.035174,11.100083 7.998331,10.897357 7.997334,10.813888 7.996341,10.730418 7.911793,10.629996 7.8094579,10.590727 c -0.102335,-0.03927 -0.1714263,-7.96e-4 -0.153537,0.08537 0.1149361,0.553987 0.2536602,0.887029 0.3694793,0.887029 0.074029,0 0.098079,-0.133532 0.053806,-0.29874 z m 7.97784,-0.863029 c -0.03041,-0.20082 -0.05532,-0.03651 -0.05532,0.365129 0,0.40164 0.02489,0.565947 0.05532,0.365128 0.03042,-0.200822 0.03042,-0.529436 0,-0.730257 z m 1.660274,-0.5880826 c -0.06969,-0.069686 -0.04681,-0.4865096 0.05543,-1.0100379 0.177677,-0.909718 0.118497,-2.0199642 -0.10767,-2.0199642 -0.06905,0 -0.08969,-0.057993 -0.04588,-0.1288743 0.09484,-0.1534639 -0.270816,-0.8983645 -0.5846,-1.1909103 -0.162838,-0.1518161 -0.167305,-0.1730174 -0.01673,-0.07941 0.112979,0.070237 0.02773,-0.066495 -0.189445,-0.3038501 -0.432529,-0.4727187 -1.096516,-0.8572792 -1.282123,-0.742568 -0.151731,0.093774 -0.667829,-0.067594 -0.595605,-0.1862271 0.03015,-0.049512 -0.402164,-0.1057876 -0.960682,-0.125057 -0.558519,-0.01927 -1.164857,-0.056455 -1.347421,-0.082635 -0.182564,-0.026179 -0.44002,-0.055224 -0.572125,-0.064544 -0.145675,-0.01028 -0.207108,-0.082255 -0.156122,-0.1829131 0.04624,-0.091282 0.005,-0.07472 -0.09175,0.036803 -0.129818,0.1497298 -0.488403,0.2093677 -1.370774,0.227984 -1.5028611,0.031706 -1.7353274,0.078185 -1.6893444,0.3377672 0.020193,0.1139928 -0.03385,0.2508706 -0.1200949,0.3041739 -0.098411,0.060821 -0.121528,0.039826 -0.062072,-0.056375 0.052106,-0.084308 0.06621,-0.1532886 0.031343,-0.1532886 -0.1558298,0 -0.62483,0.9407246 -0.5385776,1.0802844 0.056729,0.091789 0.03902,0.1203489 -0.043141,0.069571 -0.1437665,-0.088854 -0.3606307,0.2942584 -0.2367135,0.4181762 0.038232,0.038233 0.069512,-0.010154 0.069512,-0.1075202 0,-0.097367 0.026572,-0.1504591 0.05905,-0.1179815 0.032478,0.032478 0.00838,0.283711 -0.053548,0.5582952 -0.061929,0.2745841 -0.063763,0.6612704 -0.00407,0.8593024 C 7.968562,7.4998302 7.9731271,7.4955484 7.9841049,7.0410107 7.9903859,6.781123 8.0895751,6.4525079 8.2045288,6.3107547 8.319482,6.1690028 8.3677611,6.1426459 8.3118151,6.2521843 8.2242442,6.4236416 8.2413433,6.4259984 8.4347427,6.2691208 8.6779481,6.0718429 8.7427362,5.9194545 8.5266166,6.0530236 8.2287807,6.2370971 8.4201468,5.8553739 8.7589706,5.5895422 8.9597911,5.4319836 9.0344762,5.3461427 8.9249379,5.3987861 8.7629392,5.4766394 8.7568744,5.4610066 8.8924352,5.3150019 9.0286743,5.1682656 9.161963,5.1651495 9.6226909,5.2979286 c 0.9331651,0.2689319 0.9851181,0.2754405 2.3922131,0.2996638 0.996907,0.017162 1.516812,-0.036255 1.955437,-0.200908 1.064829,-0.3997208 1.053243,-0.4002279 1.535479,0.067174 0.501378,0.4859546 0.574548,0.9066987 0.293052,1.6851566 -0.151871,0.4199953 -0.128625,0.5139712 0.338402,1.3679548 0.419266,0.7666476 0.487905,0.9989978 0.418689,1.4172829 -0.0589,0.3559663 -0.04415,0.4446763 0.05116,0.3074853 0.07367,-0.106052 0.108673,-0.233716 0.07779,-0.2836975 -0.07773,-0.1257766 0.207965,-0.3361592 0.604781,-0.4453458 0.220294,-0.060617 0.272369,-0.049968 0.154834,0.031659 -0.143658,0.09977 -0.13739,0.1382321 0.03319,0.2036923 0.153937,0.05907 0.216875,0.286414 0.234855,0.848314 l 0.02456,0.767615 0.04942,-0.71602 c 0.02719,-0.393812 -0.004,-0.7694151 -0.06923,-0.8346733 z M 11.182092,4.7995025 c 0,-0.068715 0.05906,-0.1614409 0.131254,-0.206057 0.07526,-0.046516 0.09753,0.00678 0.05219,0.1249389 -0.08826,0.2300186 -0.183434,0.2721038 -0.183434,0.081118 z m -1.176468,5.5829025 c -0.1647746,-0.104398 -0.6823649,-0.0531 -0.6823649,0.06763 0,0.02799 0.1941817,0.04998 0.4315147,0.04887 0.2933832,-0.0014 0.3736822,-0.03867 0.2508502,-0.1165 z m 3.665976,0.02701 c -0.127793,-0.03339 -0.232354,-0.149488 -0.232354,-0.257983 0,-0.108493 -0.05523,-0.1631278 -0.122725,-0.121412 -0.06749,0.04171 -0.149542,-0.02944 -0.18232,-0.1581305 -0.03278,-0.1286897 -0.05224,-0.039917 -0.04324,0.1972705 0.01481,0.390648 0.05386,0.429827 0.414674,0.416114 0.22333,-0.0084 0.296242,-0.04181 0.165967,-0.07586 z M 7.4195862,9.9366495 c -0.036833,-0.091282 -0.066969,-0.016596 -0.066969,0.1659665 0,0.182565 0.030136,0.25725 0.066969,0.165968 0.036833,-0.09128 0.036833,-0.240652 0,-0.3319345 z M 7.8238797,9.6726501 c -0.031758,-0.1651586 -0.058949,-0.061297 -0.060422,0.230806 -0.00147,0.2921019 0.02451,0.4272329 0.057742,0.3002889 0.033233,-0.126942 0.034438,-0.3659349 0.00268,-0.5310949 z m 6.1208193,0.2272928 c -0.04088,-0.040878 -0.115122,0.032812 -0.164983,0.1637551 -0.07205,0.189229 -0.05681,0.20448 0.07433,0.07432 0.09074,-0.09007 0.131535,-0.1972006 0.09065,-0.2380803 z M 9.9207411,9.9698443 C 9.9658734,9.8968173 9.8947142,9.8361543 9.7626098,9.8350364 9.5589602,9.8333103 9.5527184,9.8134235 9.7215805,9.7042968 9.8412483,9.62696 9.8576248,9.5747773 9.7626098,9.5735557 c -0.086972,-0.00106 -0.1950577,0.057714 -0.24019,0.1307411 -0.094888,0.1535303 0.027507,0.3983212 0.1991607,0.3983212 0.064406,0 0.1540283,-0.05975 0.1991606,-0.1327737 z M 15.828546,9.4769442 c -0.144672,-0.225621 -0.148418,-0.2253317 -0.07579,0.00586 0.04202,0.1337682 0.08113,0.3130114 0.0869,0.3983213 0.0075,0.1119494 0.02866,0.1103203 0.07579,-0.00586 0.03592,-0.08853 -0.0032,-0.2677755 -0.0869,-0.3983213 z m -6.6004415,0.094577 c 0.1749891,0 0.2334412,-0.046522 0.1549029,-0.1232898 C 9.1201394,9.1912936 8.894348,9.2437114 8.8519286,9.5715219 8.8283047,9.7540857 8.8400468,9.8287711 8.8780211,9.737489 8.9159965,9.6462073 9.0735337,9.5715219 9.2281045,9.5715212 Z m 3.3531025,0.1056546 c 0.04348,-0.043485 0.02211,-0.1142624 -0.0475,-0.1572838 -0.06961,-0.043022 -0.196417,0.00596 -0.281791,0.1088174 -0.122471,0.1475689 -0.112448,0.1807596 0.0475,0.1572839 0.1115,-0.016365 0.238307,-0.065333 0.281791,-0.1088175 z m 1.46313,-0.3156709 c -0.141639,-0.1035678 -0.465181,-0.188305 -0.718985,-0.188305 -0.561136,0 -0.524147,0.045738 0.246669,0.3050026 0.662065,0.2226867 0.867152,0.172015 0.472316,-0.1166976 z m -1.003412,0.1578353 c 0,-0.028699 -0.09273,-0.087763 -0.206057,-0.1312523 -0.118158,-0.045343 -0.171453,-0.023083 -0.124938,0.052182 0.07798,0.1261617 0.330995,0.186607 0.330995,0.07907 z m 3.452117,-0.055215 c 0,-0.059067 -0.0906,-0.2233745 -0.201317,-0.3651278 -0.186681,-0.2389901 -0.189958,-0.2311817 -0.04508,0.1073967 0.156329,0.3653257 0.246394,0.4595353 0.246394,0.2577311 z M 8.050179,7.863994 C 7.9590382,7.5431116 7.9431687,7.5626851 7.8621712,8.0958873 7.8135154,8.4161855 7.8051731,8.8344227 7.8436314,9.0253037 7.904962,9.3297034 7.9280703,9.3012009 8.0316393,8.7934104 8.0965849,8.4749857 8.1049271,8.0567482 8.050179,7.863994 Z m 1.7682157,1.2289897 c -0.04412,-0.044119 -0.1586371,-0.048837 -0.2544832,-0.010479 -0.1059179,0.042384 -0.074456,0.073847 0.080218,0.080216 0.1399656,0.00577 0.2183851,-0.025615 0.1742656,-0.069736 z M 15.961947,8.5093315 c -0.07816,-0.1460511 -0.17199,-0.2655474 -0.208502,-0.2655474 -0.03651,0 -0.0024,0.1194963 0.07572,0.2655474 0.07816,0.1460511 0.171991,0.2655476 0.208504,0.2655476 0.03651,0 0.0024,-0.1194965 -0.07573,-0.2655476 z M 7.6878998,7.4222464 c -0.042385,-0.1059177 -0.073847,-0.074455 -0.080218,0.080218 -0.00577,0.139966 0.025616,0.218385 0.069736,0.1742656 0.04412,-0.04412 0.048837,-0.1586368 0.010479,-0.2544835 z M 15.518786,7.2811742 c -0.03684,-0.091282 -0.06696,-0.016596 -0.06696,0.1659673 0,0.1825639 0.03014,0.2572491 0.06696,0.1659671 0.03684,-0.091282 0.03684,-0.2406524 0,-0.3319344 z M 8.2162288,6.6173054 c -0.036833,-0.091282 -0.066969,-0.016596 -0.066969,0.1659672 0,0.1825639 0.030136,0.2572491 0.066969,0.1659673 0.036833,-0.091282 0.036833,-0.2406525 0,-0.3319345 z M 15.484662,5.5751814 C 15.281691,5.3633249 15.022243,5.1947048 14.908111,5.20047 c -0.178796,0.00903 -0.179952,0.020557 -0.0084,0.083286 0.359726,0.1315005 0.796348,0.6111045 0.812044,0.8919861 0.01354,0.2423771 0.02303,0.2460071 0.07865,0.030114 C 15.829095,6.0555582 15.710525,5.8110155 15.484574,5.57518 Z M 10.952265,5.766766 c -0.08989,-0.036371 -0.269136,-0.038585 -0.398321,-0.00492 -0.129185,0.033664 -0.05564,0.063421 0.16344,0.066127 0.219077,0.00271 0.324773,-0.024837 0.234881,-0.061208 z m 3.614619,-0.3097094 c 0.04652,-0.075264 -0.0069,-0.097524 -0.124937,-0.052182 -0.230021,0.088267 -0.272106,0.1834336 -0.08112,0.1834336 0.06871,0 0.161442,-0.059064 0.206057,-0.1312516 z M 9.4200734,3.7820333 c -0.04412,-0.044119 -0.1586371,-0.048837 -0.2544831,-0.010479 -0.1059179,0.042384 -0.074456,0.073847 0.080218,0.080217 0.1399656,0.00577 0.2183849,-0.025615 0.1742655,-0.069736 z m 4.2487616,0 c -0.04412,-0.044119 -0.158638,-0.048837 -0.254484,-0.010479 -0.105918,0.042385 -0.07445,0.073847 0.08022,0.080217 0.139964,0.00577 0.218384,-0.025615 0.174265,-0.069736 z m 5.69001,16.3262237 c -0.06993,-0.18223 -0.05049,-0.190444 0.118569,-0.05012 0.230394,0.191214 0.254373,0.268072 0.08364,0.268072 -0.06522,0 -0.156204,-0.09808 -0.202201,-0.217941 z m 0.586316,-0.397104 c -0.307051,-0.183379 -0.309905,-0.193668 -0.03807,-0.137239 0.315737,0.06554 0.677078,-0.227545 0.45202,-0.366638 -0.07152,-0.04421 -0.167577,-0.01966 -0.213445,0.05457 -0.04586,0.07421 -0.18443,0.134026 -0.307916,0.132908 -0.139961,-0.0014 -0.169511,-0.03877 -0.07845,-0.09958 0.08034,-0.05366 0.171383,-0.176519 0.202336,-0.273041 0.0422,-0.131602 0.144488,-0.10611 0.40895,0.101923 0.200815,0.157961 0.386854,0.222102 0.432058,0.148961 0.04366,-0.07065 -0.04178,-0.193295 -0.18988,-0.272554 -0.313306,-0.167679 -0.361361,-0.533086 -0.07011,-0.533086 0.109538,0 0.19916,-0.08963 0.19916,-0.199162 0,-0.109537 0.119496,-0.208122 0.265548,-0.219075 0.146051,-0.01095 0.335254,-0.0259 0.420451,-0.03319 0.08519,-0.0073 0.181899,0.06772 0.214893,0.166695 0.04617,0.138519 -0.04301,0.159599 -0.387258,0.09153 -0.3306,-0.06538 -0.395302,-0.05225 -0.248086,0.05035 0.170535,0.118848 0.164637,0.13909 -0.04104,0.14083 -0.132104,0.0011 -0.205533,0.05811 -0.163175,0.126644 0.04236,0.06853 0.195552,0.101787 0.340429,0.07388 0.21536,-0.04148 0.239482,-0.0096 0.132221,0.174128 -0.264326,0.453036 -0.662654,0.840555 -0.785783,0.764457 -0.06955,-0.04297 -0.145892,0.008 -0.169677,0.113405 -0.0374,0.16566 -0.08809,0.164757 -0.375175,-0.0068 z m 1.141255,-0.865983 c 0.05993,-0.09698 0.03629,-0.117162 -0.06436,-0.05496 -0.08751,0.05409 -0.261046,0.0185 -0.385642,-0.07907 -0.204044,-0.159785 -0.208445,-0.154327 -0.0443,0.05496 0.211867,0.270157 0.36143,0.294081 0.494317,0.07907 z M 4.293258,19.645391 c -0.00847,-0.118852 0.07422,-0.290476 0.1837587,-0.381383 0.1376018,-0.1142 0.1991607,-0.119224 0.1991607,-0.01625 0,0.08197 -0.055367,0.149031 -0.1230382,0.149031 -0.067672,0 -0.1503625,0.104559 -0.1837587,0.232354 -0.05123,0.196033 -0.063128,0.198575 -0.076123,0.01625 z M 3.8795349,19.064848 c 0,-0.10954 -0.059748,-0.199162 -0.1327738,-0.199162 -0.073025,0 -0.1285745,-0.134433 -0.1234417,-0.29874 0.00891,-0.285054 0.01456,-0.286575 0.1234417,-0.03319 0.108881,0.253378 0.1145372,0.251858 0.1234417,-0.03319 0.00513,-0.164309 -0.050415,-0.29874 -0.1234417,-0.29874 -0.073025,0 -0.1327738,-0.05975 -0.1327738,-0.132775 0,-0.07303 0.1180027,-0.132773 0.2622282,-0.132773 0.220552,0 0.249567,0.0633 0.1825639,0.398321 -0.054457,0.272279 -0.027255,0.398322 0.085963,0.398322 0.1259989,0 0.1220278,0.05559 -0.016596,0.232353 -0.1644121,0.209641 -0.1599269,0.214887 0.045885,0.05366 0.1254601,-0.09829 0.2150824,-0.240189 0.1991606,-0.315337 -0.015921,-0.07515 0.045737,-0.164022 0.1370187,-0.197491 0.2525399,-0.0926 0.1979893,0.289458 -0.076842,0.538178 -0.3023536,0.273627 -0.5538336,0.282968 -0.5538336,0.02058 z m -0.9294164,-1.26919 c 0,-0.07733 0.068979,-0.09797 0.1532884,-0.04587 0.1019917,0.06303 0.1169193,0.03589 0.044606,-0.08111 -0.075935,-0.122866 -0.050112,-0.153375 0.085704,-0.101261 0.1363507,0.05232 0.1943868,-0.01767 0.1943868,-0.234409 0,-0.169951 -0.048773,-0.278857 -0.1083849,-0.242014 -0.059612,0.03685 -0.067734,0.132756 -0.018052,0.213146 0.058678,0.09495 0.010489,0.115525 -0.1375039,0.05873 -0.1353335,-0.05193 -0.1949024,-0.03414 -0.1467187,0.04383 0.044616,0.07219 0.010876,0.131253 -0.074977,0.131253 -0.090728,0 -0.1270148,-0.111205 -0.086654,-0.265547 0.045133,-0.172587 0.00407,-0.265548 -0.1172884,-0.265548 -0.2457778,0 -0.2391056,-0.322339 0.010968,-0.529882 0.2123538,-0.176238 0.1524903,-0.400823 -0.1059544,-0.397501 -0.095015,0.0012 -0.078639,0.0534 0.04103,0.130741 0.1095383,0.07079 0.1692865,0.134192 0.1327737,0.140898 -0.036513,0.0068 -0.1709463,0.0322 -0.2987409,0.05667 -0.264861,0.0507 -0.325114,-0.307429 -0.066388,-0.394592 0.4093405,-0.137899 0.6949873,-0.124538 0.6638689,0.03105 -0.018256,0.09129 0.026554,0.165966 0.099581,0.165966 0.2630201,0 0.1255953,0.274849 -0.1991607,0.398322 -0.1825639,0.06941 -0.3319343,0.161079 -0.3319343,0.203709 0,0.04263 0.059748,0.04058 0.1327737,-0.0045 0.073026,-0.04513 0.1327739,-0.0123 0.1327739,0.07294 0,0.09904 0.1198496,0.124924 0.3319343,0.07169 0.2449497,-0.06148 0.3319344,-0.03046 0.3319344,0.11838 0,0.110928 0.059748,0.201689 0.1327738,0.201689 0.267954,0 0.1228014,0.360241 -0.205408,0.509783 -0.4199591,0.19135 -0.5912345,0.195253 -0.5912345,0.01348 z M 21.059276,17.460497 c 0.108655,-0.225163 0.275855,-0.412229 0.371556,-0.415701 0.0957,-0.0035 0.288361,-0.05346 0.428136,-0.111079 0.178132,-0.07344 0.225705,-0.05877 0.159071,0.04905 -0.06211,0.100496 -0.02363,0.126407 0.110993,0.07475 0.113331,-0.04349 0.206057,-0.01294 0.206057,0.06792 0,0.08084 -0.05486,0.146978 -0.121915,0.146978 -0.06705,0 -0.226225,0.04002 -0.353716,0.08895 -0.170487,0.06542 -0.203052,0.04243 -0.123118,-0.08691 0.07286,-0.11788 0.05743,-0.144178 -0.04677,-0.07978 -0.208789,0.129039 -0.0406,0.380227 0.194242,0.290106 0.102154,-0.03919 0.185731,-0.01339 0.185731,0.05733 0,0.168923 -0.21855,0.163103 -0.550706,-0.01466 -0.213601,-0.114314 -0.307051,-0.09418 -0.462408,0.09958 -0.167616,0.209062 -0.167219,0.18589 0.0029,-0.166536 z m 1.683543,-0.254483 c 0,-0.07303 0.08538,-0.282144 0.189752,-0.464707 0.104359,-0.182565 0.189751,-0.272189 0.189751,-0.199161 0,0.07303 -0.08538,0.282144 -0.189751,0.464707 -0.10436,0.182565 -0.189752,0.272186 -0.189752,0.199161 z m -1.337147,-0.327265 c 0,-0.0756 0.05788,-0.137442 0.128608,-0.137442 0.07073,0 0.09422,-0.08963 0.05219,-0.199161 -0.09029,-0.235296 0.239382,-0.26787 0.624583,-0.06172 0.172271,0.0922 0.256818,0.09303 0.256818,0.0025 0,-0.0742 -0.149369,-0.172406 -0.331935,-0.218227 -0.423028,-0.106172 -0.452937,-0.489775 -0.03319,-0.425732 0.166357,0.02538 0.281625,0.124947 0.260118,0.224684 -0.02438,0.113072 0.0368,0.15016 0.165967,0.10059 0.246035,-0.09442 0.249588,-0.06533 0.04647,0.380474 -0.114645,0.251618 -0.230067,0.328225 -0.419787,0.278613 -0.143916,-0.03763 -0.371502,-0.0096 -0.505747,0.0622 -0.163862,0.0877 -0.244083,0.08545 -0.244083,-0.0069 z M 1.8379443,16.404238 c -0.1281239,-0.333885 -0.090328,-0.420036 0.066192,-0.150877 0.077499,0.133273 0.1129371,0.270282 0.078752,0.304467 -0.034185,0.03419 -0.09941,-0.03493 -0.144944,-0.15359 z m 0.2404953,-0.739119 c -0.1228168,-0.198721 0.050971,-0.350653 0.4717325,-0.412408 0.2532713,-0.03718 0.3999464,-7.97e-4 0.3999464,0.09905 0,0.0959 -0.1431694,0.137829 -0.3651279,0.10694 -0.3419647,-0.04758 -0.3461762,-0.04249 -0.066388,0.08053 0.1643074,0.07223 0.2986987,0.148195 0.2986472,0.168806 -2.523e-4,0.09976 -0.674851,0.06057 -0.7388114,-0.04291 z M 22.600637,15.424886 c 0,-0.06222 -0.112624,-0.142574 -0.250275,-0.17857 -0.189112,-0.04946 -0.234001,-0.150583 -0.183684,-0.413807 0.03663,-0.191597 0.134312,-0.349173 0.217084,-0.35017 0.08277,-0.0011 0.284921,-0.03784 0.449228,-0.08187 0.363702,-0.09747 0.405402,0.172603 0.06639,0.429952 -0.141903,0.10772 -0.167745,0.178025 -0.06639,0.180605 0.233328,0.006 0.207374,0.358244 -0.03319,0.450559 -0.109538,0.04203 -0.199159,0.02553 -0.199159,-0.0367 z m -0.03596,-0.357085 c -0.04412,-0.04412 -0.158638,-0.04883 -0.254484,-0.01049 -0.105918,0.04239 -0.07445,0.07384 0.08022,0.08022 0.139965,0.0058 0.218385,-0.02562 0.174266,-0.06973 z m 0.227467,-0.438495 c 0.04093,-0.06621 -0.04517,-0.08913 -0.191324,-0.05091 -0.310026,0.08107 -0.349216,0.171293 -0.0744,0.171293 0.105228,0 0.224807,-0.05418 0.265731,-0.120393 z M 2.684571,14.909273 c 0,-0.236061 -0.495585,-0.457222 -0.6099388,-0.272193 -0.062913,0.101797 -0.036306,0.117398 0.078843,0.04623 0.1150044,-0.07107 0.1417527,-0.05556 0.079066,0.04587 -0.1091786,0.176654 -0.4773871,0.208349 -0.4773871,0.0411 0,-0.06171 0.109264,-0.211078 0.2428088,-0.331934 0.2984936,-0.270134 0.7441041,-0.295535 0.6448017,-0.03676 -0.038619,0.100642 -0.00418,0.249015 0.076523,0.329723 0.080707,0.08071 0.1059122,0.187568 0.056012,0.237468 -0.049901,0.0499 -0.090729,0.02313 -0.090729,-0.05951 z M 2.3526366,10.235391 c -0.045132,-0.07303 -0.018784,-0.132775 0.058551,-0.132775 0.077336,0 0.1406096,0.05975 0.1406096,0.132775 0,0.07302 -0.026348,0.132774 -0.058552,0.132774 -0.032204,0 -0.095478,-0.05974 -0.1406096,-0.132774 z M 22.114263,9.9120346 c 0.04022,-0.1048194 0.0062,-0.2129054 -0.07569,-0.2401892 -0.245442,-0.081815 0.02416,-0.3665923 0.337544,-0.3565387 0.272251,0.00874 0.274333,0.015817 0.03247,0.1104679 -0.241579,0.094538 -0.23799,0.1064818 0.05503,0.1831083 0.265888,0.06953 0.287531,0.1132201 0.1426,0.2878535 -0.217241,0.2617586 -0.590986,0.2733806 -0.49195,0.015298 z M 2.2407369,9.7431729 C 2.0639783,9.6975931 2.0174071,9.6005181 2.0729567,9.3934468 2.115248,9.2357992 2.1506658,9.0660294 2.1516629,9.0161807 2.1526587,8.9663335 2.2738398,8.8873465 2.4209515,8.8406552 2.568063,8.7939627 2.6576028,8.7058872 2.6199288,8.6449294 c -0.037674,-0.060957 0.051081,-0.079562 0.1972327,-0.041343 0.2611097,0.068282 0.3824463,0.4368404 0.1438161,0.4368404 -0.067053,0 -0.2313603,0.035512 -0.3651278,0.078913 -0.2067539,0.067081 -0.2133576,0.055615 -0.044053,-0.076495 0.1770317,-0.1381405 0.1770317,-0.1487516 0,-0.095509 -0.1095384,0.032945 -0.1810697,0.1365778 -0.1589586,0.2302948 0.022111,0.093718 -0.037637,0.2188126 -0.1327737,0.2779871 -0.1084765,0.067472 -0.029857,0.096764 0.2108447,0.078554 0.2111012,-0.01597 0.4102619,0.045649 0.4425791,0.1369308 0.059027,0.166724 -0.1986441,0.1943278 -0.6727514,0.07207 z M 22.779227,9.4994096 c -0.04324,-0.1126878 -0.04896,-0.2345542 -0.01269,-0.2708148 0.03625,-0.036259 0.09779,0.055941 0.136746,0.2048873 0.08274,0.3163905 -0.0092,0.365246 -0.124052,0.065927 z m 0.49576,-0.2821562 c -0.0058,-0.085308 -0.04487,-0.2645531 -0.0869,-0.3983214 -0.07263,-0.2311882 -0.06889,-0.2314778 0.07579,-0.00586 0.08371,0.1305459 0.12281,0.3097905 0.0869,0.3983214 -0.04714,0.116177 -0.06822,0.1178062 -0.07578,0.00586 z M 21.834421,9.0155315 c 0.0289,-0.086717 0.131824,-0.1840908 0.228707,-0.2163853 0.119831,-0.039944 0.140868,-1.329e-4 0.06579,0.1244753 -0.09363,0.1554449 -0.07633,0.155591 0.114291,9.295e-4 0.240478,-0.1950633 0.286005,-0.2921713 0.125068,-0.2667598 -0.255424,0.04033 -0.44017,-0.027076 -0.372832,-0.1360321 0.120847,-0.1955345 0.575101,-0.00909 0.646915,0.2655409 0.03646,0.1394005 0.01623,0.2225249 -0.04494,0.1847202 -0.06118,-0.037804 -0.148746,-0.008 -0.194615,0.066203 -0.117316,0.1898214 -0.632377,0.1692256 -0.568392,-0.022729 z M 1.8919948,8.4429446 c 0,-0.073026 0.057918,-0.222396 0.1287073,-0.3319343 0.070789,-0.1095385 0.1287075,-0.1394126 0.1287075,-0.066387 0,0.073025 -0.057918,0.222396 -0.1287075,0.3319343 -0.070789,0.1095379 -0.1287073,0.139412 -0.1287073,0.066387 z m 0.9585433,-0.09618 C 2.5546181,8.2045613 2.4327456,7.8454627 2.6804038,7.8454627 c 0.070735,0 0.094216,-0.089622 0.052182,-0.1991606 C 2.6506283,7.4327262 2.8952487,7.383471 3.2884866,7.5343698 3.4736833,7.605437 3.4326449,7.6659061 3.0669918,7.8607396 2.655536,8.0799783 2.6710387,8.1213414 3.1813385,8.1658272 3.3662906,8.1819512 3.4286633,8.4214367 3.2588175,8.4633148 3.1985714,8.4781696 3.0148457,8.4257213 2.8505381,8.3467646 Z M 21.423082,8.1983753 c -0.08133,-0.098002 -0.105318,-0.220747 -0.0533,-0.2727677 0.05202,-0.052021 0.0068,-0.1522184 -0.100737,-0.2226603 -0.166703,-0.1093152 -0.15756,-0.1568842 0.06242,-0.3247154 0.258441,-0.1971784 0.869778,-0.2840841 0.682749,-0.097058 -0.05477,0.054769 -0.154349,0.1070488 -0.221288,0.1161771 -0.06693,0.00913 -0.179583,0.024065 -0.250317,0.033194 -0.07073,0.00913 -0.09016,0.1167877 -0.04316,0.2392436 0.07645,0.1992191 0.09598,0.1957271 0.185661,-0.033194 0.05513,-0.1407122 0.104424,-0.1811551 0.109557,-0.089874 0.0052,0.091282 0.0726,0.1659672 0.149941,0.1659672 0.07733,0 0.103688,-0.059748 0.05855,-0.1327739 -0.04513,-0.073025 -0.01949,-0.1327737 0.05698,-0.1327737 0.168002,0 0.128089,0.5383233 -0.0553,0.7457478 -0.09487,0.1073223 -0.180373,0.088991 -0.30958,-0.066388 -0.162566,-0.1954908 -0.171978,-0.1939108 -0.105441,0.017701 0.08746,0.2781385 0.03364,0.2956209 -0.166745,0.054172 z M 3.0828923,7.9782365 c 0.1095383,-0.070788 0.2887829,-0.1254221 0.3983213,-0.1214083 0.1313205,0.00481 0.1087072,0.046169 -0.066388,0.1214083 -0.3650065,0.1568496 -0.5746405,0.1568496 -0.3319333,0 z M 22.726514,7.6960444 C 22.404824,6.9194135 21.328224,5.3984808 20.52147,4.5809343 19.647217,3.6949867 18.841169,3.0999864 17.62162,2.4403451 17.183467,2.2033518 16.875987,2.0080921 16.938335,2.0064337 c 0.06235,-0.00166 0.524441,0.2130024 1.026875,0.4770231 1.150629,0.6046384 2.502747,1.7347051 3.387549,2.8312265 0.685112,0.8490497 1.7288,2.6252095 1.611515,2.7424951 -0.0343,0.034292 -0.141283,-0.1282195 -0.23776,-0.361134 z M 2.153476,7.8029008 c 0,-0.5022287 1.6332335,-2.7722299 2.6856814,-3.7327791 C 5.669417,3.3123593 7.271532,2.2728709 7.9291346,2.0652751 8.0751858,2.0191681 7.8349262,2.1817044 7.3952244,2.4264675 5.3288593,3.5767198 3.8865251,4.9665399 2.7388862,6.9132713 2.4169105,7.4594363 2.153476,7.859769 2.153476,7.8029008 Z M 3.0828923,7.1152071 c 0,-0.1149144 0.1263679,-0.203594 0.2987409,-0.2096419 0.1643076,-0.00576 0.2240557,-0.040618 0.1327738,-0.077452 -0.091282,-0.036833 -0.1659673,-0.15809 -0.1659673,-0.2694592 0,-0.1496891 0.086554,-0.1807662 0.3319345,-0.1191791 C 4.0308902,6.5274481 4.1113287,6.4043084 3.864549,6.1575285 3.6340276,5.9270066 3.8478109,5.6947614 4.1444115,5.8534978 4.5248535,6.0571037 4.5717662,6.0196999 4.4770167,5.5883088 4.4025936,5.2494635 4.4291343,5.1899874 4.6547685,5.1899874 c 0.4141943,0 0.6852778,0.1426217 0.6852778,0.360534 0,0.1463391 -0.088266,0.1771958 -0.3319345,0.1160389 -0.2490303,-0.062502 -0.3319344,-0.03098 -0.3319344,0.126216 0,0.1185458 0.063405,0.1703394 0.1460204,0.11928 0.2107918,-0.1302762 -0.058,0.3243995 -0.4381973,0.7412348 C 4.2160827,6.8373899 4.1235066,6.9299995 4.1782758,6.8590904 4.3462256,6.6416455 4.28869,6.47622 4.0996726,6.6330896 c -0.098001,0.081335 -0.22122,0.1048435 -0.27382,0.052244 -0.0526,-0.0526 -0.033644,0.067414 0.042124,0.2666988 0.1336466,0.3515184 0.1239829,0.3623356 -0.3236623,0.3623356 -0.321637,0 -0.4614218,-0.060334 -0.461422,-0.1991609 z m 0.5642884,-0.021547 c -0.091282,-0.036833 -0.2406525,-0.036833 -0.3319343,0 -0.091282,0.036834 -0.016596,0.06697 0.1659672,0.06697 0.1825638,0 0.2572492,-0.030136 0.1659671,-0.06697 z M 4.4106299,6.3348222 c 0,-0.027572 -0.104559,-0.1321311 -0.2323541,-0.2323541 C 3.9676892,5.9373148 3.962993,5.942011 4.1281467,6.1525972 4.3015983,6.373765 4.4106302,6.4440993 4.4106299,6.3348222 Z M 20.741803,6.8496595 c 0,-0.1095383 -0.07469,-0.2000755 -0.165967,-0.2011934 -0.126677,-0.00156 -0.128336,-0.025956 -0.0071,-0.1030837 0.111578,-0.070932 0.118461,-0.159371 0.02309,-0.2967082 -0.104528,-0.150519 -0.151616,-0.156746 -0.204114,-0.026991 -0.04612,0.1140021 -0.155195,0.058121 -0.336551,-0.172436 -0.257017,-0.3267429 -0.258442,-0.3520032 -0.03384,-0.6001785 0.26062,-0.2879824 0.64474,-0.3520298 0.558434,-0.093113 -0.03042,0.091282 -0.125029,0.1734357 -0.210224,0.182564 -0.490882,0.052596 -0.489771,0.051998 -0.309531,0.1662486 0.09753,0.061815 0.172206,0.150523 0.165968,0.1971279 -0.03052,0.2280562 0.01286,0.232192 0.320593,0.030559 0.182565,-0.11962 0.331935,-0.1563664 0.331935,-0.081657 1e-6,0.07471 -0.05788,0.1358355 -0.128606,0.1358355 -0.07073,0 -0.09464,0.088526 -0.05311,0.1967283 0.05537,0.1442958 0.139013,0.1627328 0.313825,0.069176 0.24067,-0.1288024 0.343723,-0.060787 0.602965,0.3979629 0.09501,0.1681102 0.07936,0.1722806 -0.100285,0.026748 -0.164045,-0.1328958 -0.235455,-0.1358022 -0.311549,-0.01268 -0.0626,0.1012684 -0.04262,0.1250596 0.05457,0.064999 0.0843,-0.052105 0.153288,-0.037857 0.153288,0.031667 0,0.125057 -0.306288,0.287588 -0.541954,0.287588 -0.06705,0 -0.121914,-0.089622 -0.121914,-0.1991607 z m 0.415259,-0.4315148 c 0.168557,-0.2149275 0.162308,-0.2177449 -0.08333,-0.03757 -0.146051,0.1071299 -0.290442,0.2116893 -0.32087,0.2323542 -0.03042,0.020664 0.007,0.03757 0.08333,0.03757 0.07625,0 0.220645,-0.1045589 0.320871,-0.2323542 z M 19.315308,5.2578083 c -0.114892,-0.1305325 -0.127487,-0.2866837 -0.04139,-0.513148 0.176969,-0.465461 0.365342,-0.5332167 0.437211,-0.1572587 0.03873,0.2026088 -0.0084,0.3507114 -0.126006,0.3958359 -0.103341,0.039655 -0.145112,0.1413231 -0.09282,0.2259265 0.06654,0.1076662 0.147476,0.082157 0.26971,-0.08501 0.09606,-0.1313584 0.143154,-0.2897801 0.104674,-0.3520482 -0.03849,-0.062267 -0.0068,-0.1132136 0.07065,-0.1132136 0.19185,0 0.169717,0.2824669 -0.04422,0.5642884 -0.210827,0.2777323 -0.356158,0.2864409 -0.577799,0.034628 z m 0.189457,-0.623811 c -0.04239,-0.1059176 -0.07385,-0.074455 -0.08022,0.080217 -0.0058,0.1399661 0.02561,0.2183849 0.06973,0.1742654 0.04412,-0.044119 0.04883,-0.1586366 0.0105,-0.2544834 z M 5.1740791,4.9138061 C 4.8943915,4.750902 4.8687304,4.5261187 5.1298211,4.5261187 c 0.1034523,0 0.2092549,-0.063476 0.2351154,-0.1410577 C 5.3976075,4.28705 5.5209353,4.285438 5.7690683,4.379781 6.1164435,4.5118495 6.1220046,4.5063844 5.9730166,4.1793919 5.8498083,3.9089796 5.8573281,3.8195219 6.011464,3.7220009 6.1168504,3.6553233 6.2628238,3.6016706 6.3358495,3.6027728 c 0.073025,0.00106 0.028214,0.062905 -0.09958,0.1373384 -0.1277947,0.074434 -0.2323542,0.202071 -0.2323542,0.2836393 0,0.081567 0.039314,0.1089914 0.087365,0.060941 0.1167967,-0.1167958 0.443731,0.1637339 0.443731,0.3807486 0,0.094795 -0.1792445,0.2117223 -0.3983212,0.2598409 -0.2190768,0.048117 -0.3983213,0.1424862 -0.3983213,0.2097096 0,0.1595156 -0.2715472,0.1493213 -0.5642897,-0.021184 z M 5.7159119,4.5122412 C 5.6236224,4.4552028 5.4685957,4.4745294 5.371408,4.5551881 5.2302546,4.6723345 5.2284626,4.7227049 5.3625014,4.805545 5.4547914,4.862583 5.6098177,4.843257 5.7070054,4.762598 5.8481588,4.6454517 5.8499507,4.5950814 5.7159154,4.5122412 Z m 12.7075021,0.022215 c -0.05193,-0.084033 0.0017,-0.2995309 0.119239,-0.478883 0.117516,-0.1793523 0.166912,-0.3260964 0.10977,-0.3260964 -0.05714,0 -0.178524,0.1194963 -0.269734,0.2655475 -0.09121,0.1460512 -0.258479,0.2655476 -0.371709,0.2655476 -0.113229,0 -0.166459,-0.063768 -0.118289,-0.1417095 0.04823,-0.078033 -0.03775,-0.1744846 -0.191325,-0.214646 -0.153398,-0.040116 -0.287869,-0.1854637 -0.298823,-0.3229988 -0.01095,-0.1375337 -0.0259,-0.3197684 -0.03319,-0.4049639 -0.0073,-0.085197 0.05427,-0.177419 0.136831,-0.204939 0.08384,-0.027949 0.189872,0.1619442 0.240197,0.4301976 0.07941,0.4233053 0.115718,0.4594039 0.306268,0.304518 0.188144,-0.1529301 0.203949,-0.1431501 0.121889,0.07542 -0.08036,0.2140379 -0.06417,0.2261456 0.109552,0.081964 0.166274,-0.1379958 0.172951,-0.2071827 0.03623,-0.3754483 -0.124919,-0.1537427 -0.05771,-0.1419656 0.263911,0.046244 0.237333,0.1388866 0.4306,0.3441988 0.429482,0.4562478 -0.0023,0.2262718 -0.25706,0.68003 -0.263516,0.4692743 -0.0022,-0.073026 -0.05542,-0.051708 -0.118209,0.04737 -0.083,0.1309906 -0.139908,0.1384537 -0.208573,0.027354 z M 6.9928446,3.7626695 C 6.9369258,3.6348748 6.9006588,3.4855042 6.9122529,3.4307351 c 0.011594,-0.054769 -0.050618,-0.099581 -0.1382494,-0.099581 -0.1209537,0 -0.1196221,-0.039706 0.00553,-0.1648572 0.1312938,-0.1312933 0.1903492,-0.1245351 0.2900691,0.033194 0.068866,0.1089289 0.1303261,0.1383025 0.1365769,0.065277 0.014175,-0.1656007 0.236174,0.337665 0.2489167,0.5642885 0.014095,0.2506699 -0.3461537,0.1989319 -0.462249,-0.066388 z M 7.459347,3.3188931 C 7.3173533,2.9760898 7.3201739,2.88875 7.4764323,2.7898308 7.924102,2.5064345 8.1670187,2.7423695 7.8026834,3.1067047 7.5546293,3.354758 7.6909234,3.4941718 8.012979,3.3218127 8.3075852,3.164144 8.3370588,3.2741338 8.0713923,3.5397994 7.7876354,3.8235568 7.6474236,3.7729501 7.459347,3.3188931 Z m 9.432017,0.2778105 c -0.119667,-0.077337 -0.136044,-0.1295194 -0.04104,-0.130741 0.08697,-0.00106 0.195057,0.057715 0.240191,0.130741 0.101882,0.1648414 0.05591,0.1648414 -0.199161,0 z M 16.363222,3.3090267 c 0.0044,-0.2679773 0.495155,-0.8517597 0.615105,-0.7318078 0.126375,0.1263727 -0.217775,0.7764224 -0.452091,0.8539357 -0.09128,0.030197 -0.164638,-0.024761 -0.163014,-0.1221279 z m 0.524076,-0.5753525 c 0,-0.073027 -0.05792,-0.043153 -0.128707,0.066388 -0.07079,0.109537 -0.128707,0.2589074 -0.128707,0.3319344 0,0.073025 0.05792,0.04315 0.128707,-0.066388 0.07079,-0.1095396 0.128707,-0.2589101 0.128707,-0.3319344 z M 8.3261174,3.1962155 c -0.045868,-0.074217 -0.1491705,-0.094289 -0.2295599,-0.044605 -0.095428,0.058978 -0.1152874,0.00988 -0.057212,-0.1414678 0.048923,-0.1274895 0.088951,-0.2930543 0.088951,-0.3679202 0,-0.074866 0.089622,-0.1017281 0.1991607,-0.059695 0.1213168,0.046553 0.1991606,2.655e-4 0.1991606,-0.1185683 0,-0.1072467 0.06185,-0.1949942 0.1374453,-0.1949942 0.092719,0 0.090721,0.087307 -0.00615,0.2682919 -0.078971,0.1475607 -0.1074221,0.3268054 -0.063222,0.3983213 0.0442,0.071515 0.00215,0.134229 -0.09344,0.1393619 -0.095592,0.00513 -0.054307,0.060681 0.091743,0.1234425 0.2164754,0.093021 0.2240575,0.1158332 0.04103,0.1234412 -0.123479,0.00514 -0.2620409,-0.051391 -0.3079093,-0.1256078 z M 15.961947,2.7447382 c 0,-0.2616758 0.05622,-0.4757735 0.124939,-0.4757735 0.192139,0 0.294435,0.2368657 0.142775,0.330596 -0.07421,0.04587 -0.13494,0.1431461 -0.13494,0.2161717 0,0.073025 0.06751,0.091056 0.149999,0.04007 0.08941,-0.055264 0.126284,-0.02156 0.09129,0.083446 -0.132315,0.3969354 -0.374058,0.2712277 -0.374058,-0.1945093 z M 9.1240985,2.9328335 c 0.045132,-0.073025 0.018784,-0.1327738 -0.058552,-0.1327738 -0.077336,0 -0.1406096,-0.089622 -0.1406096,-0.1991606 0,-0.1239218 0.1253973,-0.1991606 0.3319343,-0.1991606 0.3724186,0 0.4041086,0.092959 0.1471073,0.4315147 -0.1854042,0.24424 -0.4211169,0.3281065 -0.27988,0.09958 z M 9.4200734,2.5870693 c -0.04412,-0.044119 -0.1586371,-0.048837 -0.2544831,-0.010476 -0.1059179,0.042384 -0.074456,0.073847 0.080218,0.080217 0.1399656,0.00577 0.2183849,-0.025615 0.1742655,-0.069736 z m 0.3512024,0.1509836 c -0.04111,-0.1071283 -0.043951,-0.2714359 -0.00632,-0.3651278 0.040148,-0.099946 0.078231,-0.060603 0.092145,0.095201 0.020201,0.2261855 0.039475,0.2163442 0.130021,-0.066388 0.1007192,-0.3144959 0.1069992,-0.3092646 0.1195392,0.09958 0.01347,0.4394878 -0.1998153,0.5900401 -0.3353906,0.2367348 z m 5.6153192,0.1062656 c -0.138223,-0.1382227 -0.103823,-0.334935 0.04274,-0.2443581 0.07671,0.04741 0.09662,-0.00914 0.04791,-0.1360706 -0.0667,-0.1738247 -0.105758,-0.1818297 -0.195605,-0.04009 -0.06174,0.097404 -0.114996,0.1173509 -0.118336,0.044327 -0.0034,-0.073026 -0.06697,-0.028215 -0.141404,0.09958 -0.215547,0.3700737 -0.408205,0.2697711 -0.362905,-0.1889356 0.0446,-0.4516779 0.366568,-0.6921603 0.384023,-0.2868379 0.006,0.1395599 0.03906,0.1726058 0.07745,0.077452 0.110821,-0.2746413 0.279204,-0.1894921 0.499826,0.2527521 0.114885,0.2302961 0.208884,0.4394147 0.208884,0.4647081 0,0.08225 -0.351586,0.048465 -0.442579,-0.042528 z M 14.854917,2.2357726 c -0.03684,-0.091282 -0.06697,-0.016596 -0.06697,0.1659672 0,0.1825638 0.03014,0.2572492 0.06697,0.1659672 0.03684,-0.091282 0.03684,-0.2406526 0,-0.3319344 z M 9.6551936,2.0034185 c 0.3650064,-0.1568496 0.5746404,-0.1568496 0.3319343,0 C 9.8775896,2.0742062 9.6983449,2.1288406 9.5888066,2.1248268 9.4574861,2.1200178 9.4800995,2.0786583 9.6551936,2.0034185 Z M 8.3938428,1.8706447 c 0.1095384,-0.070789 0.2589087,-0.1287082 0.3319344,-0.1287082 0.073025,0 0.043152,0.057918 -0.066388,0.1287082 -0.1095384,0.070788 -0.2589088,0.1287069 -0.3319344,0.1287069 -0.073025,0 -0.043152,-0.057919 0.066388,-0.1287069 z m 7.9664262,0 c -0.109538,-0.070789 -0.139412,-0.1287082 -0.06639,-0.1287082 0.07303,0 0.222396,0.057918 0.331934,0.1287082 0.109539,0.070788 0.139412,0.1287069 0.06639,0.1287069 -0.07303,0 -0.222396,-0.057919 -0.331934,-0.1287069 z"
       id="path5191" />
  </g>
</svg>
