<svg width="256" height="256" xmlns="http://www.w3.org/2000/svg" xml:space="preserve" version="1.1">

 <g>
  <title>Layer 1</title>
  <g id="svg_1">
   <path id="svg_2" fill="#030104" d="m237.062,81.761l0,0c-12.144,-14.24 -25.701,-20.1 -40.68,-19.072c-10.843,0.747 -20.938,5.154 -30.257,13.127c-9.51,-5.843 -19.8,-9.227 -30.859,-10.366c0.521,-3.197 1.46,-6.306 2.85,-9.363c3.458,-7.038 8.907,-12.741 16.331,-17.296c-5.609,-3.384 -11.227,-6.799 -16.854,-10.279c-16.257,8.104 -25.06,20.601 -26.463,38.417c-7.599,1.705 -14.685,4.486 -21.247,8.437c-9.164,-7.677 -18.996,-11.917 -29.496,-12.632c-14.819,-0.998 -28.467,4.787 -40.938,18.827c-13.004,14.621 -19.449,33.306 -19.449,54.681c-0.007,6.371 0.674,12.646 2.053,18.738c4.593,22.785 15.398,41.367 32.558,55.344c15.43,12.773 29.901,18.023 43.362,16.981c7.074,-0.561 13.624,-3.977 19.685,-10.192c10.534,5.49 20.391,8.217 29.561,8.203c9.856,-0.012 20.236,-2.953 31.125,-8.898c6.227,6.692 12.966,10.346 20.211,10.933c13.795,1.073 28.614,-4.111 44.377,-16.84c17.49,-14.104 28.043,-32.79 31.796,-55.485c0.836,-5.624 1.272,-11.292 1.272,-16.966c-0.002,-22.246 -6.293,-41.459 -18.938,-56.299zm-182.267,15.939l40.661,14.496c-4.402,8.811 -10.766,13.219 -19.06,13.219c-2.542,0 -4.917,-0.419 -7.122,-1.274c-11.171,-5.761 -16.011,-14.569 -14.479,-26.441zm95.818,87.696l-9.156,-8.389l-7.619,12.951c-3.391,0.341 -6.615,0.514 -9.665,0.514c-4.401,0 -8.635,-0.263 -12.708,-0.777l-8.634,-14.973l-9.151,9.909c-4.91,-2.717 -9.15,-5.856 -12.708,-9.413c-8.81,-8.295 -13.384,-17.959 -13.727,-28.97c2.877,1.692 7.427,3.461 13.675,5.308l10.636,13.629l9.44,-9.852c4.734,0.702 9.234,1.12 13.466,1.275l10.689,11.498l9.671,-11.949c3.559,-0.173 7.285,-0.515 11.182,-1.01l9.924,10.159l10.933,-14.227c5.931,-1.351 11.196,-2.798 15.771,-4.323c-2.885,16.782 -13.564,29.658 -32.019,38.64zm24.645,-60.489c-2.209,0.849 -4.66,1.273 -7.369,1.273c-8.134,0 -14.489,-4.415 -19.052,-13.224l40.905,-14.477c1.363,11.852 -3.469,20.662 -14.484,26.428z"/>
  </g>
  <g id="svg_3"/>
  <g id="svg_4"/>
  <g id="svg_5"/>
  <g id="svg_6"/>
  <g id="svg_7"/>
  <g id="svg_8"/>
  <g id="svg_9"/>
  <g id="svg_10"/>
  <g id="svg_11"/>
  <g id="svg_12"/>
  <g id="svg_13"/>
  <g id="svg_14"/>
  <g id="svg_15"/>
  <g id="svg_16"/>
  <g id="svg_17"/>
  <rect transform="rotate(-45, 128.001, 128.111)" id="svg_20" height="29.99992" width="320" y="113.11051" x="-31.9996" stroke="#000" fill="#000000"/>
 </g>
</svg>