<svg xmlns="http://www.w3.org/2000/svg" height="24" width="24" fill="currentColor" style=""><rect id="backgroundrect" width="100%" height="100%" x="0" y="0" fill="none" stroke="none" style="" class=""/><g class="currentLayer" style=""><title>Layer 1</title><path d="M0,0 h24 v24 H0 V0 z" fill="none" id="svg_1" class=""/><path d="M22,11 h-4.170000076293945 l3.240000009536743,-3.240000009536743 l-1.409999966621399,-1.4199999570846558 L15,11 h-2 V9 l4.659999847412109,-4.659999847412109 l-1.4199999570846558,-1.409999966621399 L13,6.170000076293945 V2 h-2 v4.170000076293945 L7.760000228881836,2.930000066757202 L6.340000152587891,4.340000152587891 L11,9 v2 H9 L4.340000152587891,6.340000152587891 L2.930000066757202,7.760000228881836 L6.170000076293945,11 H2 v2 h4.170000076293945 l-3.240000009536743,3.240000009536743 l1.409999966621399,1.4199999570846558 L9,13 h2 v2 l-4.659999847412109,4.659999847412109 l1.4199999570846558,1.409999966621399 L11,17.829999923706055 V22 h2 v-4.170000076293945 l3.240000009536743,3.240000009536743 l1.4199999570846558,-1.409999966621399 L13,15 v-2 h2 l4.659999847412109,4.659999847412109 l1.409999966621399,-1.4199999570846558 L17.829999923706055,13 H22 v-2 z" id="svg_2" class=""/><rect fill="currentColor" stroke="none" style="color: currentColor" stroke-width="1" stroke-linejoin="round" stroke-dashoffset="" fill-rule="nonzero" id="svg_3" x="-2.8583018201084207" y="11.028861895648024" width="30" height="2" class="" rx="0" ry="0" opacity="1" fill-opacity="1" transform="rotate(-45, 12, 12)"/></g></svg>
